<?xml version="1.0" standalone="no"?>
<!DOCTYPE svg PUBLIC "-//W3C//DTD SVG 20010904//EN"
 "http://www.w3.org/TR/2001/REC-SVG-20010904/DTD/svg10.dtd">
<svg version="1.0" xmlns="http://www.w3.org/2000/svg"
 width="260.000000pt" height="260.000000pt" viewBox="0 0 260.000000 260.000000"
 preserveAspectRatio="xMidYMid meet">
<metadata>
Created by potrace 1.11, written by Peter Selinger 2001-2013
</metadata>
<g transform="translate(0.000000,260.000000) scale(0.100000,-0.100000)"
fill="#000000" stroke="none">
<path d="M120 1290 l0 -390 51 0 52 0 -5 310 c-3 171 -3 308 -1 306 2 -2 59
-140 126 -307 l123 -304 36 -3 35 -3 88 218 c48 120 104 257 123 306 19 48 38
87 41 87 3 0 4 -69 1 -152 -3 -84 -4 -222 -2 -305 l3 -153 49 0 50 0 0 390 0
390 -67 0 -68 0 -27 -68 c-52 -129 -180 -457 -200 -510 -11 -30 -24 -50 -28
-45 -5 4 -24 49 -43 98 -101 259 -170 435 -187 475 l-18 45 -66 3 -66 3 0
-391z"/>
<path d="M1090 1290 l0 -390 51 0 52 0 -5 311 c-3 171 -1 305 3 297 4 -7 54
-130 112 -273 58 -143 113 -277 121 -297 14 -33 21 -38 50 -38 33 0 34 2 70
93 121 303 210 517 215 517 3 0 3 -87 -2 -192 -4 -106 -6 -242 -5 -303 l3
-110 53 -3 52 -3 0 390 0 391 -67 0 -68 0 -124 -315 c-69 -174 -128 -312 -132
-308 -4 4 -24 51 -44 103 -68 176 -167 425 -187 473 l-20 47 -64 0 -64 0 0
-390z"/>
<path d="M1960 1640 l0 -40 125 0 125 0 0 -350 0 -350 50 0 50 0 0 350 0 349
128 3 127 3 0 35 0 35 -302 3 -303 2 0 -40z"/>
</g>
</svg>
